<?xml version="1.0" encoding="UTF-8"?>
<!-- Created with Inkscape (http://www.inkscape.org/) -->
<svg width="722.49mm" height="993.42mm" version="1.1" viewBox="0 0 722.49 993.42" xmlns="http://www.w3.org/2000/svg" xmlns:cc="http://creativecommons.org/ns#" xmlns:dc="http://purl.org/dc/elements/1.1/" xmlns:rdf="http://www.w3.org/1999/02/22-rdf-syntax-ns#">
 <metadata>
  <rdf:RDF>
   <cc:Work rdf:about="">
    <dc:format>image/svg+xml</dc:format>
    <dc:type rdf:resource="http://purl.org/dc/dcmitype/StillImage"/>
    <dc:title/>
   </cc:Work>
  </rdf:RDF>
 </metadata>
 <g transform="translate(-24.291 210.29)">
  <g>
   <g transform="translate(188.99 36.286)">
    <path d="m-164.7 250.13v-496.71h722.49v993.42h-722.49z" fill="#fcfbfb" stroke-width=".35278"/>
   </g>
  </g>
  <g>
   <path transform="translate(188.99 36.286)" d="m-146.19 728.06c-0.092-0.24264-0.12674-215.47-0.0772-478.28l0.0901-477.84h685.45v956.38l-342.65 0.0884c-273.93 0.0707-342.68-7e-5 -342.81-0.35278zm115.32-49.482c2.2735-0.81682 5.9729-4.2916 7.2958-6.8528l1.0133-1.9618 0.01697 3.632c0.01577 3.3744 0.07839 3.6934 0.88288 4.4979 0.83938 0.83937 1.0219 0.8659 5.9581 0.8659 4.4867 0 5.1913-0.0802 5.9251-0.67391l0.83283-0.67392 0.35278-20.701h3.5278l0.35278 20.701 0.83283 0.67392c0.7338 0.59376 1.4383 0.67391 5.9251 0.67391 4.9362 0 5.1188-0.0265 5.9581-0.8659l0.86591-0.86592 0.023883-19.331c0.013758-11.147 0.15252-19.032 0.32774-18.625 0.16712 0.38805 1.205 8.9606 2.3063 19.05 1.1014 10.089 2.0887 18.503 2.1942 18.697 0.10544 0.19403 0.51326 0.70997 0.90627 1.1465 0.6932 0.77001 0.91421 0.79375 7.3907 0.79375h6.6761l1.8828-2.0156 1.8468 2.0156h13.071l0.91331-1.0854c0.50232-0.59697 0.9133-1.2886 0.9133-1.5369 0-1.0212 3.197-29.401 3.4403-30.539 0.14661-0.68598 0.34733 4.1742 0.45164 10.936 0.17995 11.665 0.22166 12.256 1.0043 14.223 1.1464 2.8809 4.3003 6.1802 7.1784 7.5093 2.0953 0.9676 2.4659 1.0219 6.9753 1.0219 4.4992 0 4.8837-0.056 6.9538-1.0122 2.6-1.201 5.746-4.3101 6.9081-6.827l0.77836-1.6858 0.17639 3.8248c0.24078 5.221 0.17421 5.171 6.8792 5.171 7.2771 0 6.6606 1.0009 6.8792-11.169 0.17199-9.5763 0.19398-9.8184 0.88194-9.7053 1.6771 0.27559 1.7527 0.64414 1.9513 9.5094 0.19888 8.8775 0.43402 10.118 2.0861 11.002 0.37352 0.19988 2.9172 0.36322 5.6568 0.36322 4.8662 0 4.9983-0.0201 5.8781-0.90001 0.79327-0.79326 0.87433-1.0965 0.68348-2.5576-0.11908-0.91168-0.34937-5.6264-0.51175-10.477-0.31606-9.4414-0.54983-10.739-2.3629-13.116l-0.89245-1.1701 1.0248-1.5c1.5876-2.3238 1.9535-3.9187 2.1652-9.4375l0.19625-5.1153h5.6444l0.17639 21.463 0.17639 21.463 0.83283 0.67427c0.73303 0.59344 1.4365 0.67423 5.87 0.67423s5.1369-0.0808 5.87-0.67423l0.83283-0.67427 0.17639-21.463 0.17638-21.463 6.5264-0.20289v42.745l0.86591 0.86592c0.83938 0.83937 1.022 0.8659 5.9581 0.8659 4.4867 0 5.1913-0.0802 5.9251-0.67391l0.83283-0.67392 0.35278-20.701h3.5278l0.35278 20.701 0.83283 0.67392c0.7338 0.59376 1.4384 0.67391 5.9251 0.67391 4.9362 0 5.1188-0.0265 5.9581-0.8659l0.86591-0.86592v-54.039l-0.86591-0.86593c-0.83938-0.83936-1.022-0.86589-5.9581-0.86589-4.4867 0-5.1913 0.0802-5.9251 0.67391l-0.83283 0.67391-0.17639 10.35-0.17639 10.35h-3.5278l-0.17639-10.35-0.17639-10.35-0.85388-0.69095c-0.78457-0.63486-1.2857-0.67846-6.1736-0.53679-2.9258 0.0848-5.4785 0.14912-5.6725 0.14299-0.19403-6e-3 -6.5873-0.0715-14.207-0.14517l-13.854-0.13402-0.87397 0.87397c-0.64206 0.64205-0.87397 1.2527-0.87397 2.3011 0 0.78493-0.0957 1.4272-0.21275 1.4272-0.11702 0-0.99106-0.69977-1.9423-1.555-2.9075-2.6141-3.7356-2.7831-14.439-2.9464-11.714-0.17875-11.018-0.49248-11.276 5.0864l-0.17639 3.8248-0.98149-1.9986c-1.3261-2.7003-4.8632-5.9983-7.37-6.8717-1.4574-0.50779-2.9081-0.65469-6.4652-0.65469-4.3149 0-4.717 0.0604-6.7989 1.0219-1.5515 0.71646-2.8394 1.6918-4.3095 3.2632-1.1531 1.2327-2.1548 2.2413-2.2259 2.2413-0.07111 0-0.05609-0.88275 0.03341-1.9617 0.14772-1.7812 0.0713-2.0571-0.83073-2.9986l-0.99341-1.0369h-4.4416c-5.0669 0-5.7789 0.26938-6.328 2.3942-0.18621 0.72051-0.53342 3.4134-0.77159 5.9843-0.23817 2.5709-0.54613 4.6743-0.68437 4.6743-0.13824 0-0.45425-2.3416-0.70226-5.2035-0.46016-5.3102-0.88805-6.8428-2.09-7.4861-0.88062-0.47128-9.7381-0.47325-10.618-4e-3 -1.1225 0.60075-1.3522 1.448-1.9154 7.0639-0.29756 2.9672-0.60482 5.4587-0.6828 5.5367-0.23012 0.23015-0.50004-1.5626-0.96332-6.3982-0.37589-3.9234-0.55242-4.6878-1.2832-5.5562l-0.84734-1.007-4.9957 0.0113c-3.7703 8e-3 -5.159 0.13487-5.6615 0.51527-0.57784 0.43748-0.76293 0.436-1.4014-0.0113-0.56104-0.39296-1.9218-0.51527-5.7333-0.51527-4.3937 0-5.0984 0.0815-5.8305 0.67392l-0.83283 0.67391-0.17639 10.35-0.17639 10.35h-3.5278l-0.17639-10.35-0.17639-10.35-0.83283-0.67391c-0.7338-0.59376-1.4383-0.67392-5.9251-0.67392-4.9362 0-5.1188 0.0265-5.9581 0.8659-0.80448 0.80451-0.86711 1.1236-0.88288 4.4979l-0.01697 3.632-1.0133-1.9618c-0.59132-1.1448-1.9687-2.8555-3.3074-4.1078-3.1327-2.9305-4.722-3.4554-10.462-3.4554-5.5807 0-7.0491 0.50482-10.179 3.4997-2.4452 2.3395-3.7855 4.5913-4.1467 6.9663-0.51593 3.393-0.82258 2.3588-0.83286-2.8091-0.01044-5.2518-0.03383-5.419-0.87664-6.2618-0.84025-0.83905-1.0186-0.86473-6.0133-0.86473s-5.173 0.0257-6.0133 0.86589l-0.86591 0.86593v54.039l0.86591 0.86592c0.84023 0.84022 1.0185 0.8659 6.0133 0.8659s5.173-0.0258 6.0133-0.8659c0.84279-0.84282 0.8662-1.01 0.87664-6.2618 0.01027-5.1696 0.31691-6.202 0.83337-2.8059 0.34289 2.2547 1.4487 4.2094 3.6896 6.5216 2.1646 2.2334 3.8889 3.2872 6.1709 3.7709 2.3309 0.49417 8.9725 0.1662 10.938-0.54017zm96.176-13.424c-0.20292-0.53372-0.34405-6.7468-0.34405-15.146s0.14113-14.613 0.34405-15.146c0.21485-0.56512 0.61556-0.90491 1.0671-0.90491 0.45151 0 0.85222 0.33979 1.0671 0.90491 0.20292 0.53372 0.34405 6.7468 0.34405 15.146s-0.14113 14.613-0.34405 15.146c-0.21485 0.56511-0.61556 0.90491-1.0671 0.90491-0.45151 0-0.85222-0.3398-1.0671-0.90491zm29.806-21.05c-0.10214-0.26617-0.14105-2.5393-0.08646-5.0514l0.09925-4.5674h0.87153c1.4135 0 1.8108 1.2552 1.6973 5.363-0.05468 1.9795-0.25816 3.7476-0.45219 3.9291-0.68387 0.63962-1.9357 0.83167-2.1295 0.32674zm-133.15 21.272c-0.20085-0.37529-0.36519-2.4421-0.36519-4.5928v-3.9105l0.97014 0.21259c0.53358 0.11691 1.1686 0.27368 1.4111 0.3484 0.55395 0.17068 0.61843 6.9284 0.07578 7.9423-0.20085 0.37532-0.67152 0.68238-1.0459 0.68238s-0.84507-0.30706-1.0459-0.68238zm14.837-20.617c-0.37195-0.45117-0.39556-0.70333-0.09408-1.0048 0.53402-0.53404 0.85167-0.16888 0.70735 0.81311-0.10805 0.73516-0.15353 0.74937-0.61328 0.1917zm-15.202-4.6582c0-4.8019 0.30838-6.1448 1.4111-6.1448 1.0456 0 1.4111 1.3107 1.4111 5.0598 0 2.4098 0.14609 3.4585 0.56515 4.0568 0.31083 0.44376 0.50927 0.85556 0.44097 0.91511-0.0683 0.0596-0.95762 0.18471-1.9763 0.27816l-1.8521 0.16994zm409.12 38.153c2.5981-1.1742 5.7349-4.2642 6.9081-6.8051l0.77837-1.6858 0.17639 3.8248c0.23925 5.1883 0.21724 5.171 6.5815 5.171 4.5617 0 4.772-0.0325 5.6054-0.8659l0.8659-0.86592v-7.6713c0-4.2192 0.13426-7.5205 0.29841-7.3362 0.16411 0.18433 1.1563 3.571 2.2049 7.5259 1.5098 5.6945 2.1011 7.4012 2.8417 8.2021l0.93529 1.0114h5.3426c5.202 0 5.3653-0.0229 6.2085-0.8659l0.86589-0.86592v-21.956l0.92953 0.73117c0.88163 0.69349 1.365 0.73117 9.3834 0.73117h8.454l1.0235-1.0957 1.0235-1.0956v22.684l1.7913 1.7913 18.863-0.23583 2.345-1.155c3.0475-1.5011 5.6136-4.2601 6.6785-7.1809l0.77908-2.1367 0.7572 2.0912c1.2957 3.5783 3.9564 6.4846 7.4146 8.0989 1.99 0.92886 2.4018 0.98802 6.8792 0.98802 4.5094 0 4.8801-0.0543 6.9753-1.0219 2.894-1.3365 6.0602-4.651 7.1016-7.4344 0.71723-1.917 0.73974-2.5505 0.73974-20.824 0-22.366 0.17974-21.23-4.0235-25.434-3.3562-3.3567-4.7535-3.8467-10.97-3.8467-4.2842 0-4.7255 0.065-6.7028 0.98803-3.4582 1.6143-6.1189 4.5206-7.4146 8.0989l-0.7572 2.0912-0.77908-2.1367c-1.0648-2.9205-3.631-5.6798-6.6783-7.1809l-2.3447-1.155-18.872-0.22744-1.7829 1.7829v22.684l-1.0235-1.0956-1.0235-1.0957h-8.454c-8.0184 0-8.5018 0.0377-9.3834 0.73117l-0.92953 0.73116v-21.956l-0.86589-0.86593c-0.83443-0.83439-1.0404-0.86589-5.6605-0.86589s-4.8261 0.0314-5.6605 0.86589c-0.82853 0.82857-0.86589 1.0595-0.86589 5.3505 0 2.4665-0.0886 4.396-0.19685 4.2877-0.10827-0.10826-0.73822-2.1588-1.3999-4.5567-1.6951-6.1429-1.3945-5.9474-9.1436-5.9474-7.9402 0-7.7116-0.14856-7.9569 5.171l-0.17639 3.8248-0.9815-1.9986c-1.3261-2.7003-4.8632-5.9983-7.37-6.8717-1.4574-0.50779-2.9081-0.65469-6.4652-0.65469-4.3149 0-4.717 0.0604-6.7989 1.0219-1.5514 0.71646-2.8394 1.6918-4.3094 3.2632-1.1532 1.2327-2.1548 2.2413-2.2259 2.2413-0.0711 0-0.0561-0.88275 0.0335-1.9617 0.14771-1.7812 0.0713-2.0571-0.83072-2.9986l-0.99342-1.0369h-4.4416c-5.0669 0-5.7789 0.26938-6.328 2.3942-0.18623 0.72051-0.53343 3.4134-0.77159 5.9843s-0.54614 4.6743-0.68439 4.6743c-0.13822 0-0.45424-2.3416-0.70224-5.2035-0.46016-5.3102-0.88805-6.8428-2.09-7.4861-0.88064-0.47128-9.7381-0.47325-10.618-4e-3 -1.1225 0.60075-1.3522 1.448-1.9154 7.0639-0.29756 2.9672-0.60483 5.4587-0.6828 5.5367-0.23011 0.23015-0.50002-1.5626-0.96333-6.3982-0.37588-3.9234-0.55241-4.6878-1.2832-5.5562l-0.84734-1.007h-20.613l-1.0605 1.1465c-0.58329 0.63059-1.9864 3.1309-3.118 5.5562-1.1316 2.4254-2.1937 4.5605-2.3601 4.7449-0.16976 0.18803-0.30258-1.8706-0.30258-4.6904 0-4.8653-0.0275-5.053-0.86589-5.8914-0.84025-0.84021-1.0186-0.8659-6.0133-0.8659s-5.173 0.0258-6.0133 0.8659l-0.86589 0.86593v54.039l0.86589 0.86593c0.84025 0.84021 1.0186 0.86589 6.0133 0.86589s5.173-0.0257 6.0133-0.86589c0.84829-0.84832 0.86589-0.98252 0.86589-6.5969 0-3.5727 0.12467-5.6048 0.33105-5.3959 0.18206 0.18433 1.2356 2.7164 2.3411 5.6268 1.1381 2.996 2.4005 5.7125 2.91 6.2618l0.89987 0.97014h5.2417c5.0949 0 5.266-0.0243 6.1076-0.86589 0.5939-0.59394 0.86589-1.259 0.86589-2.1175 0-0.78119-1.9888-6.2979-5.2917-14.679-2.9104-7.385-5.2917-13.551-5.2917-13.703 0-0.49742 7.7908-16.348 7.9548-16.184 0.14154 0.14153 5.098 43.832 5.098 44.938 0 0.24193 0.41098 0.92833 0.9133 1.5253l0.91331 1.0854h13.424l0.92339-1.0078 0.92336-1.0078 1.8828 2.0156h13.06l0.91331-1.0854c0.50232-0.59697 0.9133-1.2886 0.9133-1.5369 0-1.0212 3.197-29.401 3.4403-30.539 0.14662-0.68597 0.34731 4.1742 0.45163 10.936 0.17963 11.646 0.22278 12.259 1 14.212 1.0069 2.5296 4.1118 5.9736 6.4567 7.1618 2.5602 1.2974 3.9638 1.5365 8.4069 1.4322 3.5722-0.0839 4.3187-0.21354 6.2483-1.0856zm-8.0209-13.1c-0.20292-0.53372-0.34403-6.7468-0.34403-15.146s0.14111-14.613 0.34403-15.146c0.21488-0.56512 0.61556-0.90491 1.0671-0.90491s0.85221 0.33979 1.0671 0.90491c0.20292 0.53372 0.34403 6.7468 0.34403 15.146s-0.14111 14.613-0.34403 15.146c-0.21487 0.56511-0.61556 0.90491-1.0671 0.90491s-0.8522-0.3398-1.0671-0.90491zm112.89 0c-0.20292-0.53372-0.34403-6.7468-0.34403-15.146s0.14111-14.613 0.34403-15.146c0.21488-0.56512 0.61556-0.90491 1.0671-0.90491s0.85221 0.33979 1.0671 0.90491c0.20292 0.53372 0.34403 6.7468 0.34403 15.146s-0.14111 14.613-0.34403 15.146c-0.21487 0.56511-0.61556 0.90491-1.0671 0.90491s-0.8522-0.3398-1.0671-0.90491zm-30.521 0.11116c-0.0931-0.24254-0.12774-7.2672-0.0771-15.61l0.0921-15.169 0.93603-0.10833c0.65419-0.0757 1.1056 0.13381 1.4993 0.69585 0.49308 0.704 0.56328 2.5649 0.56328 14.935 0 12.218-0.0743 14.237-0.54917 14.915-0.59559 0.85034-2.1849 1.0716-2.4644 0.34308zm-530.69 12.82 0.83283-0.67392 0.35278-20.701h3.5278l0.35278 20.701 0.83283 0.67392c0.7338 0.59376 1.4383 0.67391 5.9251 0.67391 4.9362 0 5.1188-0.0265 5.9581-0.8659l0.86591-0.86592v-54.039l-0.86591-0.86593c-0.83938-0.83922-1.0219-0.86575-5.9581-0.86575-4.4867 0-5.1913 0.0802-5.9251 0.67391l-0.83283 0.67391-0.17639 10.35-0.17639 10.35h-3.5278l-0.17639-10.35-0.17639-10.35-0.83283-0.67391c-0.7338-0.59376-1.4383-0.67391-5.9251-0.67391-4.9362 0-5.1188 0.0265-5.9581 0.86589l-0.86591 0.86593v54.039l0.86591 0.86592c0.83938 0.83937 1.0219 0.8659 5.9581 0.8659 4.4867 0 5.1913-0.0802 5.9251-0.67391zm286.81-3.2e-4 0.83284-0.67427 0.17639-21.463 0.17639-21.463 3.4044-0.17638c2.6858-0.13918 3.5608-0.31825 4.1451-0.84843 0.40739-0.36961 0.74073-0.59722 0.74073-0.50575 0 0.0915-1.5081 9.5742-3.3514 21.073-1.8433 11.499-3.3514 21.34-3.3514 21.871 0 0.5963 0.37775 1.3265 0.98943 1.9125 0.96813 0.92752 1.0864 0.94795 5.4913 0.94795 2.476 0 4.8052-0.16239 5.1761-0.36086 1.0614-0.56801 1.4818-1.6733 2.0773-5.46l0.55471-3.5278h4.9376l0.56744 3.8558c0.80222 5.4514 0.85873 5.4928 7.4956 5.4928 3.1637 0 5.1678-0.14277 5.4105-0.38545 0.27876-0.27876 0.58483-0.27876 1.1057 0 0.4802 0.257 4.7032 0.38545 12.672 0.38545h11.952l0.94795-0.98944c0.92946-0.97014 0.94795-1.079 0.94795-5.5784 0-4.5571-7e-3 -4.5955-0.98016-5.5281-0.9731-0.93229-1.0234-0.93977-6.9674-1.0362l-5.9872-0.0969v-9.1722l4.6514-0.0983 4.6514-0.0982 0.90481-1.0753c0.86434-1.0272 0.90484-1.2703 0.90484-5.4309s-0.0405-4.4037-0.90484-5.4309l-0.90481-1.0753-9.3028-0.1966v-8.4667l5.9872-0.0971c5.944-0.0964 5.9943-0.10386 6.9674-1.0361 0.97335-0.93254 0.98016-0.97099 0.98016-5.5281 0-4.4995-0.0183-4.6083-0.94795-5.5784l-0.94795-0.98943h-24.242l-0.86593 0.86589-0.8659 0.86593v19.301c0 10.616-0.10445 19.197-0.23216 19.069-0.1277-0.12767-1.6086-8.8305-3.291-19.34-2.9912-18.685-3.08-19.126-4.0208-19.935-0.93828-0.80705-1.1323-0.82751-7.8487-0.82751h-6.8866l-0.96429 0.97014c-0.80235 0.80722-1.0418 1.5033-1.4258 4.1451-0.67934 4.673-1.0603 4.8239-1.0727 0.42492-0.0102-3.5659-0.0659-3.8635-0.87662-4.6743l-0.86593-0.86589h-27.228l-0.86591 0.86589c-0.83342 0.83344-0.86591 1.0437-0.86591 5.6054 0 6.2906 0.0351 6.3385 4.8183 6.5815l3.472 0.17639 0.17639 21.463 0.17638 21.463 0.83284 0.67427c0.733 0.59344 1.4365 0.67423 5.8699 0.67423 4.4335 0 5.1369-0.0808 5.8699-0.67423zm19.145-22.036c-0.1119-0.29154-0.0537-0.79767 0.12933-1.1247 0.28398-0.50747 0.35895-0.45766 0.51138 0.33976 0.19491 1.0197-0.31221 1.641-0.64071 0.78493zm204.05-68.519c2.8562-1.4233 2.8817-1.5277 2.8817-11.782s-0.0254-10.358-2.8817-11.782l-1.8429-0.91839-221.74 8e-3c-216.66 7e-3 -221.77 0.0229-223.21 0.6743-3.0735 1.3957-2.9416 0.85708-2.9416 12.018 0 11.161-0.13183 10.622 2.9416 12.018 1.4344 0.6513 6.5521 0.66675 223.21 0.6743l221.74 8e-3 1.8429-0.91838zm-408.52-33.864c1.3648-0.68009 2.0868-1.3389 2.8033-2.5576l0.96502-1.6416 0.17639-29.104 0.17639-29.104h11.289l0.17639 29.104 0.17639 29.104 0.96502 1.6416c0.71646 1.2188 1.4385 1.8776 2.8033 2.5576l1.8383 0.91606h26.945l1.8802-0.98224c1.5221-0.7952 2.0673-1.3404 2.8625-2.8625l0.98226-1.8803v-151.53l-0.98226-1.8803c-0.79517-1.5221-1.3404-2.0673-2.8625-2.8625l-1.8802-0.98224h-26.945l-1.8383 0.91606c-1.3648 0.68008-2.0868 1.3389-2.8033 2.5576l-0.96502 1.6416-0.17639 29.104-0.17639 29.104h-11.289l-0.17639-29.104-0.17639-29.104-0.96502-1.6416c-0.71646-1.2188-1.4385-1.8776-2.8033-2.5576l-1.8383-0.91606h-26.592l-1.8802 0.98224c-1.5221 0.7952-2.0673 1.3404-2.8625 2.8625l-0.98226 1.8803v151.53l0.98226 1.8803c0.79517 1.5221 1.3404 2.0673 2.8625 2.8625l1.8802 0.98224h26.592zm141.46 0c1.3648-0.68009 2.0868-1.3389 2.8033-2.5576l0.96503-1.6416 0.35278-121.71 19.05-0.35277 1.6416-0.96503c1.2188-0.71645 1.8775-1.4385 2.5576-2.8033l0.91604-1.8383v-24.475l-0.98225-1.8803c-0.79517-1.5221-1.3404-2.0673-2.8625-2.8625l-1.8802-0.98224h-75.333l-1.8802 0.98224c-1.5221 0.7952-2.0673 1.3404-2.8625 2.8625l-0.98226 1.8803v24.475l0.91605 1.8383c0.68009 1.3648 1.3389 2.0868 2.5576 2.8033l1.6416 0.96503 19.05 0.35277 0.35278 121.71 0.96502 1.6416c0.71646 1.2188 1.4385 1.8776 2.8033 2.5576l1.8383 0.91606h26.534zm91.469-0.0662c1.5221-0.7952 2.0673-1.3404 2.8625-2.8625l0.98224-1.8803v-19.08c0-10.494 0.13328-18.929 0.29616-18.745s3.6936 9.2251 7.8461 20.091c7.0673 18.492 7.6441 19.85 9.0212 21.233 0.90438 0.90812 2.0296 1.6276 2.9207 1.8676 0.97525 0.26261 5.9197 0.35638 15.113 0.2866l13.663-0.10368 1.356-0.93701c0.74584-0.51534 1.7777-1.5472 2.293-2.2931 0.82307-1.1912 0.93702-1.6992 0.93702-4.1783v-2.8222l-15.434-39.031c-8.4887-21.467-15.434-39.336-15.434-39.709 0-0.37324 6.9403-14.798 15.423-32.054l15.423-31.375 0.0109-2.8222c0.01-2.5329-0.0923-2.9746-0.99787-4.3093-0.64869-0.95617-1.6496-1.8063-2.8033-2.3812l-1.7944-0.89419-12.895 4e-3c-8.0663 0-13.404 0.14323-14.254 0.3792-2.9528 0.81993-3.6532 1.9745-12.181 20.08-4.3412 9.2163-8.0316 16.908-8.2008 17.092-0.17547 0.1911-0.30769-6.5759-0.30769-15.747v-16.082l-0.98224-1.8803c-0.79519-1.5221-1.3404-2.0673-2.8625-2.8625l-1.8803-0.98224h-26.65l-1.8803 0.98224c-1.5221 0.7952-2.0673 1.3404-2.8625 2.8625l-0.98224 1.8803v151.53l0.98224 1.8803c0.7952 1.5221 1.3404 2.0673 2.8625 2.8625l1.8803 0.98224h26.65l1.8803-0.98224zm143.01-0.0372c7.6491-1.7215 13.648-4.8194 18.521-9.5639 6.271-6.1064 10.124-14.775 11.257-25.326 0.26208-2.4402 0.38986-17.38 0.38986-45.583s-0.12778-43.143-0.38986-45.583c-0.82321-7.6648-3.3347-14.942-7.0622-20.464-4.5549-6.7478-12.452-11.967-21.226-14.029-5.4256-1.2749-8.4595-1.416-30.451-1.416h-21.577l-1.8803 0.98224c-1.5221 0.7952-2.0673 1.3404-2.8625 2.8625l-0.98224 1.8803v151.53l0.98224 1.8803c0.80038 1.532 1.3376 2.0659 2.9013 2.8827l1.919 1.0025 23.469-0.13364c22.794-0.12978 23.57-0.15642 26.991-0.92632zm-18-35.405c-0.0923-0.24253-0.12703-20.682-0.0771-45.42l0.0907-44.979 2.9986-0.11045c4.0576-0.14947 5.5319 0.31584 6.2892 1.9849 0.54095 1.1924 0.59002 4.8058 0.59002 43.458 0 39.35-0.0409 42.244-0.6149 43.463-0.47236 1.0031-0.92202 1.3909-1.9403 1.6737-1.92 0.53319-7.1256 0.48426-7.3362-0.069zm-360.29-157.74c1.7657-0.63063 3.7846-2.2896 5.503-4.522 0.78882-1.0248 4.4172-6.7845 8.063-12.799 7.2899-12.027 8.0057-13.064 26.407-38.281 7.0105-9.6067 17.653-24.739 23.651-33.628l10.905-16.161 5.3028-4.9883c2.9165-2.7436 9.1128-8.7402 13.769-13.326 9.0243-8.8866 10.777-10.437 50.271-44.45 32.297-27.816 38.734-33.291 39.284-33.417 0.24331-0.0555 2.4166 2.0083 4.8296 4.5861 2.413 2.5778 7.4107 7.862 11.106 11.743 3.6954 3.8806 14.507 15.39 24.026 25.576 9.5187 10.186 21.227 22.648 26.018 27.693 4.7913 5.0447 19.689 20.84 33.107 35.101 13.417 14.261 27.276 28.945 30.797 32.632 3.5212 3.6865 14.869 15.752 25.217 26.811 30.657 32.765 33.446 35.658 35.425 36.755l1.789 0.99187 17.432 0.10093c9.8817 0.0573 17.568-0.0353 17.746-0.21336 0.42662-0.42662-2.5774-7.1689-4.2317-9.4977-0.72241-1.0169-39.255-53.552-85.627-116.75-46.373-63.193-85.385-116.39-86.694-118.2l-2.3804-3.3085 0.358-11.709c0.47805-15.634 1.0354-39.911 1.0442-45.483l7e-3 -4.4941 1.8521-2.1049c6.9196-7.8641 8.5159-9.7842 10.736-12.914 8.9018-12.549 15.458-27.746 17.723-41.081 0.93737-5.5192 1.0242-16.229 0.1754-21.653-2.6073-16.664-9.4459-30.567-20.478-41.634-7.9642-7.9891-16.005-13.173-27.356-17.637-9.8182-3.8609-17.375-4.718-31.865-3.6139-6.7339 0.51311-14.84 0.98837-33.867 1.9855-15.844 0.83039-27.409 1.4528-35.983 1.9366-5.0447 0.28466-12.347 0.68523-16.228 0.89016-3.8806 0.20493-14.12 0.76711-22.754 1.2493-8.6342 0.48217-18.715 1.0315-22.401 1.2207-3.6865 0.1892-9.5603 0.50032-13.053 0.69137-3.4925 0.19106-10.954 0.5939-16.581 0.8952-5.6268 0.30131-10.75 0.63045-11.385 0.73143-1.5426 0.24541-3.5105 2.0307-3.9356 3.5707-1.1593 4.1986 3.2457 11.434 8.5294 14.01 2.9411 1.4338 5.2586 1.8048 26.546 4.2499 25.024 2.8742 92.314 10.419 92.988 10.427 1.3933 0.0151 1.4372 0.44685 0.50399 4.9633-1.2323 5.9644-1.5237 13.603-0.76591 20.079 0.59179 5.0574 0.86847 9.2675 1.9938 30.339 0.38859 7.276 0.86707 15.61 1.0633 18.521 0.61711 9.1532 1.3763 21.946 1.7586 29.633 0.20264 4.0746 0.40486 7.9562 0.44938 8.6258 0.0903 1.3583-0.0966 1.4536-3.976 2.0271l-1.9403 0.2868 0.0741 2.0933c0.15172 4.2874 2.7456 10.618 5.4388 13.273l1.6346 1.6116 0.58579 11.088c0.32218 6.0986 0.67376 12.755 0.78129 14.793l0.19551 3.7042-17.761 18.018c-56.98 57.807-83.143 84.632-90.969 93.274-3.9556 4.3676-4.1789 4.7042-8.3395 12.567-11.626 21.973-61.856 121.74-61.856 122.85v0.76115l17.022-0.0155c13.122-0.012 17.318-0.12153 18.318-0.47844zm202.32-454.43c14.057-2.0873 27.02-11.392 33.464-24.021 7.3909-14.485 6.6281-31.911-2.0086-45.887-2.5951-4.1992-8.6006-10.28-12.963-13.125-7.8185-5.0991-14.671-7.3054-23.854-7.6797-14.958-0.60978-28.637 5.68-37.739 17.353-4.0904 5.2457-6.7282 10.609-8.5744 17.432-0.84463 3.122-0.91486 3.9361-0.91569 10.613-7e-4 6.9934 0.0357 7.3697 1.1099 11.408 1.2828 4.8231 4.0734 10.908 6.8558 14.95 4.7523 6.9029 12.335 12.964 20.17 16.123 2.8249 1.1389 8.9021 2.8206 11.336 3.137 2.7202 0.35364 9.7944 0.18985 13.119-0.30374z" fill="#c80202" stroke-width=".35278"/>
  </g>
  <g>
   <path transform="translate(188.99 36.286)" d="m-41.858 675.62c-2.6778-0.92491-4.2947-2.3811-5.7168-5.1482l-1.2347-2.4027v-36.126l1.2347-2.4183c2.0571-4.0289 5.2361-5.8009 10.407-5.8009 5.1658 0 8.4895 1.8726 10.472 5.9004 1.1423 2.3203 1.1692 2.4806 1.1692 6.9685v4.5936h-6.7028l-0.23297-4.0187c-0.2698-4.654-0.71504-5.5751-3.0617-6.3336-1.8846-0.60914-4.0628 0.0138-5.1406 1.4704-0.72306 0.97709-0.73698 1.3114-0.73698 17.701 0 16.39 0.01393 16.724 0.73698 17.701 1.0778 1.4567 3.2558 2.0798 5.1406 1.4706 2.7144-0.87736 2.9418-1.5502 2.9418-8.7022v-6.2361l-3.5278-0.35278v-6.35h10.583v20.535l-1.2347 2.4171c-1.434 2.8071-3.3248 4.4443-6.0768 5.2615-2.4729 0.73437-6.6939 0.67352-9.0203-0.13004zm104.17 0.19463c-3.7882-1.2514-6.1017-3.5348-7.207-7.1133-0.69428-2.2478-0.73054-3.1757-0.73054-18.695 0-15.542 0.0354-16.444 0.73369-18.705 0.9-2.9138 3.0207-5.3499 5.7173-6.5673 1.556-0.70252 2.4098-0.8304 5.5435-0.8304s3.9874 0.12788 5.5435 0.8304c2.6966 1.2174 4.8173 3.6535 5.7173 6.5673 0.69828 2.2608 0.73369 3.1633 0.73369 18.705s-0.0354 16.444-0.73369 18.705c-0.90702 2.9366-3.0283 5.3644-5.7173 6.5433-2.2555 0.9889-7.3943 1.2885-9.6004 0.55975zm6.6081-6.9784c0.34312-0.18366 0.90167-0.75787 1.2412-1.2761 0.56594-0.86374 0.61736-2.3296 0.61736-17.601 0-16.342-0.014-16.677-0.73698-17.654-0.40996-0.55403-1.3883-1.2065-2.2049-1.4704-1.8847-0.60917-4.0628 0.0138-5.1406 1.4704-0.72306 0.9772-0.73698 1.3116-0.73698 17.701 0 16.402 0.01341 16.723 0.7386 17.701 1.2611 1.7006 4.1682 2.2279 6.2223 1.1287zm290.78 6.9784c-3.7882-1.2514-6.1017-3.5348-7.207-7.1133-0.69427-2.2478-0.73053-3.1757-0.73053-18.695 0-15.542 0.0354-16.444 0.73367-18.705 0.90001-2.9138 3.0207-5.3499 5.7173-6.5673 1.556-0.70252 2.4098-0.8304 5.5435-0.8304s3.9874 0.12788 5.5435 0.8304c2.6966 1.2174 4.8173 3.6535 5.7173 6.5673 0.69829 2.2608 0.73368 3.1633 0.73368 18.705s-0.0354 16.444-0.73368 18.705c-0.90702 2.9366-3.0284 5.3644-5.7173 6.5433-2.2556 0.9889-7.3943 1.2885-9.6004 0.55975zm6.6081-6.9784c0.34311-0.18366 0.90166-0.75787 1.2412-1.2761 0.56596-0.86374 0.61736-2.3296 0.61736-17.601 0-16.342-0.0141-16.677-0.73698-17.654-0.40997-0.55403-1.3883-1.2065-2.2049-1.4704-1.8847-0.60917-4.0628 0.0138-5.1406 1.4704-0.72306 0.9772-0.73699 1.3116-0.73699 17.701 0 16.402 0.0134 16.723 0.73861 17.701 1.2611 1.7006 4.1682 2.2279 6.2223 1.1287zm106.28 6.9784c-3.7882-1.2514-6.1017-3.5348-7.207-7.1133-0.69427-2.2478-0.73053-3.1757-0.73053-18.695 0-15.542 0.0354-16.444 0.73367-18.705 0.90001-2.9138 3.0207-5.3499 5.7173-6.5673 1.556-0.70252 2.4098-0.8304 5.5435-0.8304s3.9874 0.12788 5.5435 0.8304c2.6966 1.2174 4.8173 3.6535 5.7173 6.5673 0.69829 2.2608 0.73368 3.1633 0.73368 18.705s-0.0354 16.444-0.73368 18.705c-0.90702 2.9366-3.0284 5.3644-5.7173 6.5433-2.2556 0.9889-7.3943 1.2885-9.6004 0.55975zm6.6081-6.9784c0.34311-0.18366 0.90166-0.75787 1.2412-1.2761 0.56596-0.86374 0.61736-2.3296 0.61736-17.601 0-16.342-0.0141-16.677-0.73698-17.654-0.40997-0.55403-1.3883-1.2065-2.2049-1.4704-1.8847-0.60917-4.0628 0.0138-5.1406 1.4704-0.72306 0.9772-0.73699 1.3116-0.73699 17.701 0 16.402 0.0134 16.723 0.73861 17.701 1.2611 1.7006 4.1682 2.2279 6.2223 1.1287zm-574.24 6.3184c-0.09534-0.24959-0.13226-11.725-0.08205-25.501l0.09129-25.047h7.0556l0.35278 21.872h9.8778l0.35278-21.872h7.0556v50.8h-7.0556l-0.35278-21.872h-9.8778l-0.35278 21.872-3.4457 0.10103c-2.5588 0.075-3.4903-0.0159-3.6191-0.35277zm32.103 0c-0.09534-0.24959-0.13226-11.725-0.08205-25.501l0.09129-25.047h7.0556v50.8l-3.4457 0.10103c-2.5588 0.075-3.4903-0.0159-3.6191-0.35277zm43.744 0c-0.09534-0.24959-0.13226-11.725-0.08205-25.501l0.09129-25.047h7.0556l0.35278 21.872h9.8778l0.35278-21.872h7.0556v50.8h-7.0556l-0.35278-21.872h-9.8778l-0.35278 21.872-3.4457 0.10103c-2.5588 0.075-3.4903-0.0159-3.6191-0.35277zm35.977 0.0499c-0.32727-0.52955-5.8392-49.769-5.6344-50.334 0.19374-0.53414 6.7262-0.63038 7.0516-0.10389 0.11458 0.18542 1.0912 8.6389 2.1702 18.785 1.079 10.147 2.1033 18.596 2.2761 18.778 0.17279 0.18112 0.42339 0.22003 0.55689 0.0865 0.1335-0.13349 1.0734-8.6954 2.0886-19.026 1.0152-10.331 1.8612-18.823 1.8798-18.872 0.08727-0.2268 7.0672-0.056 7.2069 0.17639 0.08748 0.14552 0.98902 8.6783 2.0034 18.962 1.0144 10.283 1.9765 18.84 2.1379 19.015 0.16661 0.18062 0.44569-0.0482 0.64538-0.52917 0.1935-0.46605 1.1614-8.9436 2.1509-18.839 0.98951-9.8954 1.8657-18.19 1.9471-18.433 0.10297-0.30692 1.0662-0.44097 3.1687-0.44097 2.0955 0 3.0701 0.13508 3.1819 0.44097 0.24607 0.67335-5.3771 50.05-5.7413 50.414-0.17532 0.17533-2.528 0.27442-5.2282 0.2202l-4.9094-0.0985-1.3071-11.994c-0.71889-6.5969-1.3149-12.352-1.3244-12.788-0.0095-0.43656-0.22963-0.79375-0.4891-0.79375-0.35863 0-0.74815 2.6016-1.6242 10.848-0.63384 5.9664-1.2555 11.721-1.3814 12.788l-0.22898 1.9403-5.1758 0.0975c-3.5495 0.0669-5.2529-0.0272-5.4211-0.2993zm67.74-0.0499c-0.09534-0.24959-0.13226-11.725-0.08205-25.501l0.09129-25.047 7.2319-0.10587c9.1941-0.13459 10.871 0.22214 13.618 2.8971 2.6225 2.5535 3.0616 4.2542 2.9054 11.253-0.10964 4.914-0.19656 5.5227-1.048 7.3387-0.51968 1.1084-1.4904 2.4286-2.2048 2.9986-0.70197 0.56011-1.2763 1.2565-1.2763 1.5475 0 0.29105 0.57434 0.98743 1.2763 1.5475 0.71881 0.57354 1.6795 1.8834 2.1994 2.9986 0.89256 1.9148 0.93022 2.266 1.1392 10.623 0.11887 4.7537 0.28008 8.8812 0.35824 9.1722 0.11805 0.43956-0.4499 0.54638-3.3546 0.63084-2.1797 0.0634-3.6412-0.0427-3.8806-0.28148-0.2429-0.24247-0.45379-3.3891-0.57425-8.5683-0.16236-6.9807-0.28617-8.3821-0.84132-9.5237-0.89114-1.8323-2.2606-2.4574-5.4856-2.5038l-2.6549-0.0382-0.17639 10.407-0.17639 10.407-3.4457 0.10103c-2.5588 0.075-3.4903-0.0159-3.6191-0.35277zm14.086-28.268c1.9324-1.2662 2.1513-2.0483 2.1513-7.6867 0-4.72-0.0674-5.2839-0.73925-6.1891-0.97684-1.3161-2.9406-1.93-5.7709-1.8042l-2.3093 0.10266-0.0953 7.7528c-0.05242 4.264-0.0099 7.9752 0.09438 8.2471 0.27353 0.71282 5.4355 0.38583 6.669-0.42245zm22.253 28.268c-0.0938-0.24959-0.21013-10.217-0.25844-22.15l-0.0878-21.696-8.4667-0.35278v-6.35h24.694v6.35l-8.4667 0.35278-0.17638 22.049-0.17639 22.049-3.4457 0.10103c-2.5598 0.0751-3.4896-0.0155-3.6163-0.35277zm20.458 0c-0.0953-0.24959-0.13226-11.725-0.0821-25.501l0.0913-25.047h7.0556l0.35278 21.872h9.8778l0.35278-21.872h7.0556v50.8h-7.0556l-0.35278-21.872h-9.8778l-0.35278 21.872-3.4457 0.10103c-2.5588 0.075-3.4903-0.0159-3.6191-0.35277zm50.45 0c-0.0938-0.24959-0.21011-10.217-0.25844-22.15l-0.0878-21.696-8.4667-0.35278v-6.35h24.694v6.35l-8.4667 0.35278-0.35278 44.097-3.4457 0.10103c-2.5598 0.0751-3.4896-0.0155-3.6163-0.35277zm15.583 0.16372c-0.20571-0.33285 7.6993-49.953 8.0478-50.517 0.31083-0.50292 10.999-0.50556 11.31-4e-3 0.32932 0.5328 8.2431 50.204 8.049 50.52-0.2304 0.37451-7.0944 0.33045-7.3276-0.047-0.10591-0.17138-0.45869-2.1161-0.78395-4.3215-0.32522-2.2055-0.74362-4.2084-0.92974-4.4509-0.24081-0.31376-1.6938-0.44097-5.0369-0.44097-3.3714 0-4.7791 0.12457-4.9839 0.44097-0.15695 0.24254-0.60289 2.346-0.99095 4.6743l-0.70555 4.2333-3.2344 0.10104c-1.7789 0.0556-3.3151-0.0296-3.4137-0.18905zm17.249-16.059c0.0945-0.24641-0.6248-5.7089-1.5986-12.139-0.97378-6.4299-1.7705-11.864-1.7705-12.076 0-0.82695-1.0131-0.32964-1.1922 0.58529-0.78228 3.9946-3.4388 23.098-3.2723 23.532 0.17029 0.4438 0.90068 0.54494 3.9354 0.54494 2.6868 0 3.7743-0.12499 3.8982-0.448zm15.14 15.887c-0.0937-0.24543-0.12937-11.717-0.0792-25.493l0.0913-25.047h21.167v6.35l-13.758 0.35278v14.817l10.936 0.35278v6.35l-10.936 0.35278v15.522l13.758 0.35278v6.35l-10.504 0.0934c-8.2133 0.0731-10.541-4e-3 -10.675-0.35278zm39.514 7e-3c-0.0953-0.24959-0.13226-11.725-0.082-25.501l0.0913-25.047h7.0556l0.0934 10.696c0.0836 9.5813 0.15215 10.685 0.65722 10.583 0.35288-0.0708 2.4315-4.0726 5.5558-10.696l4.992-10.583 3.6112-0.10054c1.9862-0.0553 3.6112 0.0384 3.6112 0.20828 0 0.16983-2.3812 5.1751-5.2917 11.123-2.9104 5.9477-5.2904 11.093-5.2888 11.433 0 0.34068 2.3828 6.6431 5.2917 14.005 2.9088 7.3623 5.2888 13.593 5.2888 13.847 0 0.34798-0.85968 0.46044-3.5196 0.46044-3.2711 0-3.5539-0.0561-4.0048-0.79375-0.26684-0.43656-2.0422-4.8816-3.9454-9.8778-3.9013-10.242-4.0421-10.42-5.7222-7.2319-0.96294 1.8272-0.97843 1.9588-1.1524 9.7896l-0.17639 7.9375-3.4457 0.10104c-2.5588 0.075-3.4904-0.0159-3.6191-0.35278zm34.919 0.0499c-0.32727-0.52956-5.8392-49.769-5.6344-50.334 0.19375-0.53414 6.7262-0.63037 7.0516-0.10389 0.11459 0.18542 1.0912 8.6389 2.1702 18.785 1.079 10.147 2.1033 18.596 2.276 18.778 0.17279 0.18112 0.42341 0.22003 0.5569 0.0865 0.13349-0.13349 1.0734-8.6954 2.0886-19.026s1.8612-18.823 1.8798-18.872c0.0873-0.2268 7.0672-0.056 7.2069 0.17639 0.0875 0.14552 0.98901 8.6783 2.0034 18.962 1.0144 10.283 1.9765 18.84 2.1379 19.015 0.16662 0.18062 0.4457-0.0482 0.64537-0.52917 0.19354-0.46606 1.1614-8.9437 2.151-18.839 0.98951-9.8954 1.8657-18.19 1.947-18.433 0.10298-0.30691 1.0662-0.44097 3.1687-0.44097 2.0955 0 3.0701 0.13508 3.1819 0.44097 0.24606 0.67335-5.3771 50.05-5.7414 50.414-0.17533 0.17533-2.528 0.27443-5.2282 0.2202l-4.9094-0.0985-1.3071-11.994c-0.71889-6.597-1.3148-12.352-1.3244-12.788-0.01-0.43656-0.22963-0.79375-0.4891-0.79375-0.35863 0-0.74813 2.6016-1.6242 10.848-0.63384 5.9664-1.2555 11.721-1.3814 12.788l-0.22899 1.9403-5.1758 0.0975c-3.5495 0.0669-5.2529-0.0272-5.4211-0.29929zm67.74-0.0489c-0.0956-0.25016-0.13264-11.726-0.0824-25.502l0.0913-25.047 4.6772-0.0985c4.5771-0.0963 4.6845-0.0812 5.0168 0.70556 0.1868 0.4422 1.9352 6.7571 3.8854 14.033 3.8154 14.235 4.0895 15.104 4.6015 14.592 0.19339-0.19339 0.37035-6.3605 0.42407-14.782l0.0922-14.45h6.35v50.8l-3.6736 0.10118c-2.0205 0.0556-3.809-0.0342-3.9745-0.19981-0.23125-0.23125-9.8144-34.965-9.8144-35.572 0-0.0747-0.23668-0.13592-0.52592-0.13592-0.45798 0-0.53778 2.3142-0.61736 17.903l-0.0914 17.903-3.0926 0.10203c-2.2752 0.075-3.1385-0.0184-3.2663-0.35278zm52.568 0.01c-0.0976-0.25566-0.13649-11.736-0.0863-25.512l0.0913-25.047h8.1139c7.799 0 8.1863 0.0328 9.9793 0.84293 2.5446 1.1498 4.4782 3.4196 5.3684 6.3015 0.65927 2.1344 0.70375 3.2887 0.70375 18.256 0 14.967-0.0445 16.121-0.70375 18.256-0.89013 2.8819-2.8238 5.1517-5.3684 6.3015-1.7614 0.79594-2.3127 0.84918-9.893 0.95497-6.3965 0.0893-8.0637 0.0176-8.2052-0.35277zm14.1-6.7854c2.5473-1.0643 2.4856-0.60801 2.4856-18.374 0-14.812-0.0443-15.974-0.64481-16.89-0.96495-1.4727-2.6599-2.0292-5.8166-1.9097l-2.7108 0.10262-0.0917 18.344c-0.0505 10.089-0.0159 18.543 0.0771 18.785 0.23834 0.62244 5.1746 0.57919 6.7013-0.0587zm-34.933-15.487c-0.10128-0.26392-0.1373-1.7358-0.0801-3.2708l0.10407-2.791h13.758v6.35l-6.7991 0.0958c-5.4737 0.0772-6.835 4e-3 -6.9832-0.38396zm-432.5-72.667c-0.09726-0.25343-0.13201-2.4364-0.07723-4.851l0.0996-4.3902h439.21v9.525l-219.53 0.0885c-180.4 0.0727-219.56 6e-3 -219.7-0.37236zm8.4776-33.842c-0.09323-0.24532-0.12881-33.387-0.07906-73.647l0.09046-73.201h22.225l0.35278 63.147h26.811l0.35278-63.147h22.578v147.11h-22.578l-0.17639-31.574-0.17639-31.574h-26.811l-0.17639 31.574-0.17639 31.574-11.033 0.0932c-8.6373 0.073-11.07-4e-3 -11.203-0.35278zm141.46 0c-0.0927-0.24532-0.20765-28.783-0.25544-63.417l-0.0869-62.971-23.989-0.35277v-20.108h70.908v20.108l-23.989 0.35277-0.17638 63.324-0.17639 63.324-11.033 0.0932c-8.6377 0.073-11.07-4e-3 -11.202-0.35278zm91.368 0c-0.0932-0.24532-0.1288-33.387-0.0791-73.647l0.0905-73.201h22.225l0.0901 31.687c0.0819 28.796 0.14143 31.677 0.65313 31.574 0.36252-0.0732 5.8689-11.358 15.462-31.687l14.899-31.574 11.171-0.0931c6.7249-0.0561 11.171 0.0375 11.171 0.2352 0 0.18058-7.1438 14.894-15.875 32.698-8.7312 17.803-15.875 32.506-15.875 32.673 0 0.16722 7.1438 18.417 15.875 40.555 8.7312 22.138 15.875 40.469 15.875 40.734 0 0.67842-22.295 0.71889-22.857 0.0415-0.20104-0.24253-5.2074-13.062-11.125-28.487s-10.87-28.324-11.004-28.663c-0.60988-1.5401-1.4423-0.53177-4.7551 5.7598l-3.3514 6.3649-0.17639 22.645-0.17639 22.645-11.033 0.0932c-8.6373 0.073-11.07-4e-3 -11.203-0.35278zm121.01 0.0145c-0.0963-0.25329-0.13437-33.401-0.0846-73.662l0.0905-73.201 44.097 0.0282 3.5278 0.94805c11.619 3.1223 18.587 10.155 21.646 21.847 1.4477 5.5326 1.5051 7.7571 1.3691 53.023-0.14118 46.985-0.0368 44.387-2.0403 50.8-2.83 9.0594-9.0178 15.477-17.895 18.56-5.2966 1.8393-5.159 1.8298-28.572 1.9778-17.842 0.11279-21.997 0.0524-22.139-0.32166zm40.752-20.756c3.2738-1.2261 5.1624-3.3012 6.4662-7.1045l0.76571-2.2336v-86.078l-0.7783-2.4694c-1.1045-3.5044-2.471-5.1999-5.3219-6.6035l-2.3514-1.1576h-16.948l-0.0906 52.74c-0.0498 29.007-8e-3 52.957 0.0926 53.222 0.25114 0.65973 16.307 0.38096 18.166-0.31542zm-393.7-172.85c0-0.91528 52.621-104.86 58.618-115.79 1.0357-1.8878 2.8991-4.5866 4.141-5.9972 5.6266-6.3916 41.834-43.767 56.482-58.304 3.9102-3.8806 9.9875-10.072 13.505-13.758s14.3-14.688 23.961-24.447l17.565-17.744-7e-3 -5.0101c-4e-3 -2.7556-0.15235-7.312-0.32966-10.125-0.17732-2.8134-0.4331-7.8282-0.5684-11.144l-0.246-6.0287 6.6611-0.22022c21.635-0.7153 38.488-4.7712 51.4-12.37 4.0803-2.4014 9.3547-6.2991 13.66-10.095 1.7849-1.5734 3.3143-2.7917 3.3988-2.7072 0.0845 0.08447-0.0141 2.9669-0.21886 6.4054-0.20486 3.4385-0.37067 9.2902-0.36845 13.004 4e-3 3.7135-0.17635 13.211-0.3968 21.105-0.22042 7.894-0.29838 14.761-0.17321 15.259 0.39049 1.5558 3.572 5.9662 47.378 65.678 104.23 142.07 126.4 172.33 126.4 172.5 0 0.0992-4.6273 0.13183-10.283 0.0724l-10.283-0.10806-3.8683-4.0569c-2.1275-2.2313-14.208-15.09-26.845-28.575s-24.813-26.423-27.058-28.751c-2.2445-2.3283-15.135-15.981-28.645-30.339-13.51-14.358-29.678-31.503-35.929-38.1-6.2508-6.597-17.959-19.059-26.017-27.693-8.0587-8.6342-17.402-18.58-20.762-22.101-3.3604-3.5211-10.244-10.824-15.298-16.228-5.0532-5.4042-9.3998-9.8738-9.659-9.9325-0.25926-0.0587-1.2338 0.8637-2.1657 2.0498-0.93186 1.1861-4.24 4.3298-7.3516 6.9859-9.1561 7.8162-58.582 50.386-67.407 58.057-4.4626 3.879-12.248 11.114-17.3 16.078-5.0522 4.9642-11.514 11.141-14.359 13.726-2.8452 2.5854-5.7955 5.5189-6.5563 6.519-0.76081 1-5.9971 8.6728-11.636 17.051-5.6391 8.3778-15.853 22.903-22.697 32.279-18.468 25.299-19.7 27.086-26.96 39.107-3.673 6.081-7.3256 11.741-8.117 12.578l-1.4388 1.5218h-10.115c-6.5384 0-10.115-0.1253-10.115-0.35436zm171.3-276.57c-2.0869-0.20924-2.9202-0.44565-3.2734-0.92862-0.71655-0.97993-0.40405-1.7067 0.78436-1.8243 1.7588-0.17396 7.9057-1.4787 11.462-2.433 18.93-5.0792 35.826-16.749 48.244-33.323 8.224-10.976 11.43-17.417 13.572-27.264 0.65049-2.9905 0.77234-4.6636 0.77234-10.606 0-6.0097-0.11861-7.6047-0.80014-10.76-2.3976-11.099-7.3114-20.307-14.872-27.867-4.2572-4.2571-8.483-7.2396-14.285-10.082-4.9992-2.4492-9.7068-3.987-13.121-4.2864-2.0813-0.18247-2.2366-0.1403-3.2632 0.88634-0.85795 0.85796-1.0779 1.3786-1.0779 2.5515 0 2.041 1.5797 3.6057 4.4343 4.392 9.1077 2.5086 15.301 5.8866 21.166 11.544 6.8656 6.6225 11.146 14.49 13.265 24.382 1.092 5.0982 1.0905 13.386-4e-3 18.493-1.8652 8.7098-5.77 16.1-13.93 26.364-11.347 14.272-26.263 23.914-43.972 28.423-2.226 0.56678-4.175 0.90277-4.3311 0.74664-0.15613-0.15613-0.51165-4.6372-0.79003-9.958-0.27813-5.3208-0.59403-10.627-0.70174-11.791-0.1077-1.1642-0.34867-4.9742-0.53547-8.4667s-0.49851-8.7312-0.69268-11.642c-0.19369-2.9104-0.75179-12.832-1.2397-22.049-0.93246-17.612-0.92548-17.514-1.7853-25.047-1.1476-10.053 0.60938-20.232 5.0236-29.104 6.6849-13.436 18.437-22.849 33.249-26.63 4.0675-1.0385 12.309-1.8851 15.892-1.6324 11.813 0.8333 22.084 4.9334 33.717 13.459 9.417 6.9017 17.857 18.803 21.632 30.503 2.6144 8.1037 3.3946 13.184 3.3589 21.872-0.0261 6.3887-0.13807 7.7461-0.95863 11.642-1.4957 7.1005-4.4648 15.509-7.8826 22.323-4.5648 9.1011-9.986 16.761-16.947 23.946-2.7777 2.8668-5.0503 5.3448-5.0503 5.5066 0 0.39521-9.4251 9.0875-12.524 11.55-8.5712 6.8114-17.21 10.961-28.948 13.906-9.1097 2.2851-27.891 3.9764-35.587 3.2047zm-16.427-132.16c-3.7835-0.45589-22.437-2.5758-41.451-4.7109-52.481-5.8928-67.926-7.7387-69.751-8.3356-1.6177-0.52924-3.8032-2.1888-3.8032-2.888 0-0.38884 2.5819-0.61513 13.053-1.144 3.9776-0.20091 10.01-0.52498 13.406-0.72016 3.3955-0.19518 9.1899-0.50606 12.876-0.69083 3.6865-0.18478 10.91-0.57689 16.051-0.87137 9.03-0.51716 14.837-0.82436 29.81-1.5769 3.8806-0.19503 8.1668-0.44174 9.525-0.54823 1.3582-0.10649 6.9938-0.42925 12.524-0.71724 5.5298-0.28799 14.34-0.75634 19.579-1.0408 5.2388-0.28444 11.351-0.60985 13.582-0.72312 4.6707-0.23711 4.7222-0.62718-0.45627 3.4567-5.7149 4.5069-11.571 11.615-14.965 18.165-1.3117 2.5313-1.8462 3.2494-2.3942 3.2165-0.38806-0.02328-3.8012-0.41536-7.5847-0.87126zm57.856-45.83c-8.0842-1.2677-14.912-4.6164-20.695-10.149-11.703-11.197-14.973-28.864-8.0462-43.462 4.7032-9.9111 13.788-17.537 23.961-20.113 10.071-2.5502 18.217-1.7602 27.182 2.6358 10.118 4.9616 16.736 13.092 19.629 24.116 0.95814 3.6515 1.2999 11.726 0.66431 15.694-1.3117 8.1874-6.028 17.099-11.562 21.846-6.6148 5.6745-13.91 8.8227-22.286 9.617-4.4974 0.42649-5.0218 0.41558-8.8463-0.18417z" fill="#010101" stroke-width=".35278"/>
  </g>
 </g>
</svg>
